<?xml version="1.0" standalone="no"?>
<!DOCTYPE svg PUBLIC "-//W3C//DTD SVG 20010904//EN"
 "http://www.w3.org/TR/2001/REC-SVG-20010904/DTD/svg10.dtd">
<svg version="1.0" xmlns="http://www.w3.org/2000/svg"
 width="1153.000000pt" height="650.000000pt" viewBox="0 0 1153.000000 650.000000"
 preserveAspectRatio="xMidYMid meet">

<g transform="translate(0.000000,650.000000) scale(0.100000,-0.100000)"
fill="#000000" stroke="none">
<path d="M0 3255 l0 -3245 5765 0 5765 0 0 3245 0 3245 -5765 0 -5765 0 0
-3245z m5805 3212 c3 -12 5 -56 3 -97 -3 -81 -10 -89 -64 -76 -23 6 -24 10
-24 87 0 88 9 108 52 109 21 0 29 -6 33 -23z m3 -302 c4 -83 -3 -105 -34 -105
-42 0 -54 22 -54 93 0 71 5 77 55 74 29 -2 30 -3 33 -62z m-3 -178 c3 -12 5
-56 3 -97 -3 -81 -10 -89 -64 -76 -23 6 -24 10 -24 87 0 88 9 108 52 109 21 0
29 -6 33 -23z m-2515 -67 l0 -60 -30 0 c-27 0 -30 -3 -30 -30 0 -27 -3 -30
-30 -30 l-30 0 0 -90 0 -90 -30 0 -30 0 0 90 0 90 30 0 c27 0 30 3 30 30 0 27
3 30 30 30 27 0 30 3 30 30 l0 30 -60 0 -60 0 0 -30 c0 -27 -3 -30 -30 -30
l-30 0 0 60 0 60 120 0 120 0 0 -60z m5730 30 l0 -30 -90 0 -90 0 0 -60 0 -60
90 0 90 0 0 -30 c0 -27 3 -30 30 -30 27 0 30 -3 30 -30 0 -27 -3 -30 -30 -30
-27 0 -30 -3 -30 -30 l0 -30 -105 0 -105 0 0 30 c0 20 -5 30 -15 30 -10 0 -15
10 -15 30 0 20 5 30 15 30 10 0 15 -10 15 -30 l0 -30 105 0 105 0 0 30 0 30
-90 0 -90 0 0 30 c0 27 -3 30 -30 30 l-30 0 0 90 0 90 120 0 120 0 0 -30z
m-3212 -265 c4 -83 -3 -105 -34 -105 -42 0 -54 22 -54 93 0 71 5 77 55 74 29
-2 30 -3 33 -62z m-3 -178 c3 -12 5 -56 3 -97 -3 -81 -10 -89 -64 -76 -23 6
-24 10 -24 87 0 88 9 108 52 109 21 0 29 -6 33 -23z m-4735 -87 c0 -13 7 -20
20 -20 13 0 20 -7 20 -20 0 -13 7 -20 20 -20 13 0 20 -7 20 -20 0 -11 7 -20
15 -20 13 0 15 -64 15 -515 0 -451 -2 -515 -15 -515 -8 0 -15 -9 -15 -20 0
-13 -7 -20 -20 -20 -13 0 -20 -7 -20 -20 0 -19 -7 -20 -175 -20 -168 0 -175 1
-175 20 0 13 -7 20 -20 20 -13 0 -20 7 -20 20 0 13 -7 20 -20 20 -20 0 -20 7
-20 515 0 508 0 515 20 515 13 0 20 7 20 20 0 13 7 20 20 20 13 0 20 7 20 20
0 13 7 20 20 20 13 0 20 7 20 20 0 19 7 20 135 20 128 0 135 -1 135 -20z
m4738 -215 c4 -83 -3 -105 -34 -105 -42 0 -54 22 -54 93 0 71 5 77 55 74 29
-2 30 -3 33 -62z m-3 -178 c3 -12 5 -56 3 -97 -3 -81 -10 -89 -64 -76 -23 6
-24 10 -24 87 0 88 9 108 52 109 21 0 29 -6 33 -23z m3 -302 c4 -83 -3 -105
-34 -105 -42 0 -54 22 -54 93 0 71 5 77 55 74 29 -2 30 -3 33 -62z m-3 -178
c3 -12 5 -56 3 -97 -3 -81 -10 -89 -64 -76 -23 6 -24 10 -24 87 0 88 9 108 52
109 21 0 29 -6 33 -23z m3 -302 c4 -83 -3 -105 -34 -105 -42 0 -54 22 -54 93
0 71 5 77 55 74 29 -2 30 -3 33 -62z m-3 -178 c3 -12 5 -56 3 -97 -3 -81 -10
-89 -64 -76 -23 6 -24 10 -24 87 0 88 9 108 52 109 21 0 29 -6 33 -23z m2313
-135 c2 -7 10 -12 18 -12 8 0 17 -7 20 -15 3 -8 14 -17 24 -20 10 -3 22 -19
25 -35 4 -17 11 -30 16 -30 5 0 9 -29 9 -65 0 -36 -4 -65 -9 -65 -5 0 -12 -13
-16 -30 -3 -16 -15 -32 -25 -35 -10 -3 -21 -12 -24 -20 -3 -8 -12 -15 -21 -15
-8 0 -15 -4 -15 -10 0 -5 -7 -10 -15 -10 -8 0 -15 -4 -15 -10 0 -6 -27 -10
-60 -10 -33 0 -60 4 -60 10 0 6 -9 10 -20 10 -11 0 -20 5 -20 10 0 6 -5 10
-11 10 -15 0 -59 42 -59 57 0 6 -6 13 -12 16 -9 2 -13 30 -13 92 0 62 4 90 13
93 6 2 12 8 12 14 0 15 43 58 58 58 6 0 12 4 12 9 0 14 37 20 114 17 44 -1 71
-6 74 -14z m2582 -77 c0 -8 9 -15 20 -15 13 0 20 -7 20 -20 0 -13 7 -20 20
-20 13 0 20 -7 20 -20 0 -13 7 -20 20 -20 20 0 20 -7 20 -520 0 -513 0 -520
-20 -520 -13 0 -20 -7 -20 -20 0 -13 -7 -20 -20 -20 -11 0 -20 -7 -20 -15 0
-13 -26 -15 -170 -15 -144 0 -170 2 -170 15 0 8 -9 15 -20 15 -13 0 -20 7 -20
20 0 13 -7 20 -20 20 -20 0 -20 7 -20 520 0 513 0 520 20 520 13 0 20 7 20 20
0 13 7 20 20 20 13 0 20 7 20 20 0 13 7 20 20 20 11 0 20 7 20 15 0 13 21 15
130 15 109 0 130 -2 130 -15z m-4892 -90 c4 -83 -3 -105 -34 -105 -42 0 -54
22 -54 93 0 71 5 77 55 74 29 -2 30 -3 33 -62z m-3 -178 c3 -12 5 -56 3 -97
-3 -81 -10 -89 -64 -76 -23 6 -24 10 -24 87 0 88 9 108 52 109 21 0 29 -6 33
-23z m3 -302 c4 -83 -3 -105 -34 -105 -42 0 -54 22 -54 93 0 71 5 77 55 74 29
-2 30 -3 33 -62z m-3 -178 c3 -12 5 -56 3 -97 -3 -81 -10 -89 -64 -76 -23 6
-24 10 -24 87 0 88 9 108 52 109 21 0 29 -6 33 -23z m3 -302 c4 -83 -3 -105
-34 -105 -42 0 -54 22 -54 93 0 71 5 77 55 74 29 -2 30 -3 33 -62z m-3 -178
c3 -12 5 -56 3 -97 -3 -81 -10 -89 -64 -76 -23 6 -24 10 -24 87 0 88 9 108 52
109 21 0 29 -6 33 -23z m3 -302 c4 -83 -3 -105 -34 -105 -42 0 -54 22 -54 93
0 71 5 77 55 74 29 -2 30 -3 33 -62z m-3 -178 c3 -12 5 -56 3 -97 -3 -81 -10
-89 -64 -76 -23 6 -24 10 -24 87 0 88 9 108 52 109 21 0 29 -6 33 -23z m3
-302 c4 -83 -3 -105 -34 -105 -42 0 -54 22 -54 93 0 71 5 77 55 74 29 -2 30
-3 33 -62z m-3 -178 c3 -12 5 -56 3 -97 -3 -81 -10 -89 -64 -76 -23 6 -24 10
-24 87 0 88 9 108 52 109 21 0 29 -6 33 -23z m3 -302 c4 -83 -3 -105 -34 -105
-42 0 -54 22 -54 93 0 71 5 77 55 74 29 -2 30 -3 33 -62z m-3 -178 c3 -12 5
-56 3 -97 -3 -81 -10 -89 -64 -76 -23 6 -24 10 -24 87 0 88 9 108 52 109 21 0
29 -6 33 -23z m3 -302 c4 -83 -3 -105 -34 -105 -42 0 -54 22 -54 93 0 71 5 77
55 74 29 -2 30 -3 33 -62z m-3 -178 c3 -12 5 -56 3 -97 -3 -81 -10 -89 -64
-76 -23 6 -24 10 -24 87 0 88 9 108 52 109 21 0 29 -6 33 -23z m3 -302 c4 -83
-3 -105 -34 -105 -42 0 -54 22 -54 93 0 71 5 77 55 74 29 -2 30 -3 33 -62z
m-3 -178 c3 -12 5 -56 3 -97 -3 -81 -10 -89 -64 -76 -23 6 -24 10 -24 87 0 88
9 108 52 109 21 0 29 -6 33 -23z"/>
</g>
</svg>
